<svg xmlns="http://www.w3.org/2000/svg" aria-hidden="true" style="position:absolute;width:0;height:0;overflow:hidden">
  <defs>
    <symbol id="switcher" viewBox="0 0 32 32">
<path fill="#02897a" style="fill: var(--color2, #02897a)" d="M16 29.333c7.352 0 13.333-5.981 13.333-13.333s-5.981-13.333-13.333-13.333c-7.352 0-13.333 5.981-13.333 13.333s5.981 13.333 13.333 13.333zM16 5.333c5.881 0 10.667 4.785 10.667 10.667s-4.785 10.667-10.667 10.667c-5.881 0-10.667-4.785-10.667-10.667s4.785-10.667 10.667-10.667z"></path>
<path fill="#02897a" style="fill: var(--color2, #02897a)" d="M25.333 16c0-5.155-4.18-9.333-9.333-9.333v18.667c5.153 0 9.333-4.179 9.333-9.333z"></path>
</symbol>
    <symbol id="mobile" viewBox="0 0 21 32">
      <path d="M16.935 2.286H3.636c-1.377 0-2.494 1.152-2.494 2.571v22.286c0 1.42 1.117 2.571 2.494 2.571h13.299c1.377 0 2.494-1.152 2.494-2.571V4.857c0-1.42-1.117-2.571-2.494-2.571zm-4.156 23.952c0 .52-.374.905-.831.905H8.577c-.41 0-.784-.386-.784-.857s.374-.857.831-.857h3.325c.457 0 .831.386.831.809zm3.325-3.381H4.468V5.714h11.636v17.143z"/>
    </symbol>
   <symbol id="facebook" viewBox="0 0 19 32">
<path fill="none" stroke="#02897a" style="stroke: var(--color1, #02897a)" stroke-linejoin="round" stroke-linecap="round" stroke-miterlimit="4" stroke-width="2.9091" d="M17.455 1.455h-4.364c-1.929 0-3.779 0.766-5.143 2.13s-2.13 3.214-2.13 5.143v4.364h-4.364v5.818h4.364v11.636h5.818v-11.636h4.364l1.455-5.818h-5.818v-4.364c0-0.386 0.153-0.756 0.426-1.029s0.643-0.426 1.029-0.426h4.364v-5.818z"></path>
</symbol>
    <symbol id="instagram" viewBox="0 0 32 32">
<path d="M16 2.881c4.275 0 4.781 0.019 6.462 0.094 1.563 0.069 2.406 0.331 2.969 0.55 0.744 0.288 1.281 0.638 1.837 1.194 0.563 0.563 0.906 1.094 1.2 1.838 0.219 0.563 0.481 1.412 0.55 2.969 0.075 1.688 0.094 2.194 0.094 6.463s-0.019 4.781-0.094 6.463c-0.069 1.563-0.331 2.406-0.55 2.969-0.288 0.744-0.637 1.281-1.194 1.837-0.563 0.563-1.094 0.906-1.837 1.2-0.563 0.219-1.413 0.481-2.969 0.55-1.688 0.075-2.194 0.094-6.463 0.094s-4.781-0.019-6.463-0.094c-1.563-0.069-2.406-0.331-2.969-0.55-0.744-0.288-1.281-0.637-1.838-1.194-0.563-0.563-0.906-1.094-1.2-1.837-0.219-0.563-0.481-1.413-0.55-2.969-0.075-1.688-0.094-2.194-0.094-6.463s0.019-4.781 0.094-6.463c0.069-1.563 0.331-2.406 0.55-2.969 0.288-0.744 0.638-1.281 1.194-1.838 0.563-0.563 1.094-0.906 1.838-1.2 0.563-0.219 1.412-0.481 2.969-0.55 1.681-0.075 2.188-0.094 6.463-0.094zM16 0c-4.344 0-4.887 0.019-6.594 0.094-1.7 0.075-2.869 0.35-3.881 0.744-1.056 0.412-1.95 0.956-2.837 1.85-0.894 0.888-1.438 1.781-1.85 2.831-0.394 1.019-0.669 2.181-0.744 3.881-0.075 1.713-0.094 2.256-0.094 6.6s0.019 4.887 0.094 6.594c0.075 1.7 0.35 2.869 0.744 3.881 0.413 1.056 0.956 1.95 1.85 2.837 0.887 0.887 1.781 1.438 2.831 1.844 1.019 0.394 2.181 0.669 3.881 0.744 1.706 0.075 2.25 0.094 6.594 0.094s4.888-0.019 6.594-0.094c1.7-0.075 2.869-0.35 3.881-0.744 1.050-0.406 1.944-0.956 2.831-1.844s1.438-1.781 1.844-2.831c0.394-1.019 0.669-2.181 0.744-3.881 0.075-1.706 0.094-2.25 0.094-6.594s-0.019-4.887-0.094-6.594c-0.075-1.7-0.35-2.869-0.744-3.881-0.394-1.063-0.938-1.956-1.831-2.844-0.887-0.887-1.781-1.438-2.831-1.844-1.019-0.394-2.181-0.669-3.881-0.744-1.712-0.081-2.256-0.1-6.6-0.1v0z"></path>
<path d="M16 7.781c-4.537 0-8.219 3.681-8.219 8.219s3.681 8.219 8.219 8.219 8.219-3.681 8.219-8.219c0-4.537-3.681-8.219-8.219-8.219zM16 21.331c-2.944 0-5.331-2.387-5.331-5.331s2.387-5.331 5.331-5.331c2.944 0 5.331 2.387 5.331 5.331s-2.387 5.331-5.331 5.331z"></path>
<path d="M26.462 7.456c0 1.060-0.859 1.919-1.919 1.919s-1.919-0.859-1.919-1.919c0-1.060 0.859-1.919 1.919-1.919s1.919 0.859 1.919 1.919z"></path>
</symbol>
    <symbol id="clock" viewBox="0 0 26 32">
      <path d="M23.664 2.689h1.614a.531.531 0 0 0 .538-.538V1.075a.53.53 0 0 0-.538-.538H.538A.53.53 0 0 0 0 1.075v1.076a.53.53 0 0 0 .538.538h1.613c0 6.219 2.975 10.723 6.269 12.908-3.294 2.185-6.269 6.689-6.269 12.908H.538a.53.53 0 0 0-.538.538v1.076c0 .302.235.538.538.538h24.74a.531.531 0 0 0 .538-.538v-1.076a.531.531 0 0 0-.538-.538h-1.614c0-6.219-2.975-10.723-6.269-12.908 3.294-2.185 6.269-6.689 6.269-12.908zm-2.151 0c0 2.454-.555 4.622-1.429 6.454H5.731c-.874-1.832-1.429-4-1.429-6.454h17.21zm-.958 20.437H5.261c1.244-3.244 3.479-5.546 5.714-6.454h3.866c2.235.908 4.471 3.21 5.714 6.454z"/>
    </symbol>
    <symbol id="like" viewBox="0 0 34 32">
      <path d="M17.067 30.172c.305 0 .61-.114.838-.343l11.867-11.428c.171-.171 4.362-4 4.362-8.571 0-5.581-3.41-8.914-9.105-8.914-3.333 0-6.457 2.629-7.962 4.114C15.562 3.544 12.438.916 9.105.916 3.41.916 0 4.249 0 9.83c0 4.571 4.191 8.4 4.343 8.533L16.229 29.83c.229.229.533.343.838.343z"/>
    </symbol>
    <symbol id="chain" viewBox="0 0 41 32">
      <path d="m21.673 12.898 2.674 1.245 3.98-1.184v-2.775c0-4.714-3.98-8.49-8.735-8.49-4.735 0-8.735 3.755-8.735 8.429v12.653c0 1.163-.939 2.082-2.082 2.082s-2.082-.918-2.082-2.082v-5.347H-.001v5.429a8.753 8.753 0 0 0 8.755 8.755c4.796 0 8.755-3.857 8.755-8.633V10.49c0-1.143.939-2.082 2.082-2.082s2.082.939 2.082 2.082v2.408zm10.817 4.531v5.612c0 1.143-.939 2.061-2.082 2.061s-2.082-.918-2.082-2.061v-5.51l-3.98 1.184-2.674-1.245v5.469c0 4.796 3.939 8.674 8.755 8.674a8.753 8.753 0 0 0 8.755-8.755v-5.429h-6.694z"/>
    </symbol>
    <symbol id="cursor" viewBox="0 0 21 32">
      <path d="M19.042 18.067 1.832.857a1.003 1.003 0 0 0-.756-.319C.942.538.79.572.673.622a1.079 1.079 0 0 0-.672.992v25.277c0 .437.269.824.672.992.118.05.269.084.403.084.286 0 .555-.118.756-.319l5.244-5.244 3.21 7.597a1.08 1.08 0 0 0 1.412.571l2.975-1.261a1.08 1.08 0 0 0 .571-1.412l-3.378-8h6.42c.437 0 .824-.269.992-.672a1.038 1.038 0 0 0-.235-1.16z"/>
    </symbol>
    <symbol id="play" viewBox="0 0 28 32">
<path  d="M26.088 12.891c2.441 1.354 2.441 4.864 0 6.218l-21.155 11.739c-2.37 1.315-5.281-0.399-5.281-3.109v-23.477c0-2.71 2.911-4.424 5.281-3.109l21.155 11.739z"></path>
</symbol>
    <symbol id="logo" viewBox="0 0 36 32">
<path fill="#02bc6b" style="fill: var(--color1, #02bc6b)" d="M2.785 30.323c-1.532 0-2.785-1.241-2.785-2.757v-9.639h7.010v-0.011h4.213c1.086-0.028 2.005-0.965 2.005-2.068 0-1.13-0.947-2.068-2.089-2.068l-11.14 0.002v-2.759c0-1.516 1.253-2.757 2.785-2.757h8.355c2.117 0 3.927 0.744 5.403 2.233 1.504 1.461 2.256 3.253 2.256 5.349 0 2.068-0.724 3.86-2.2 5.321s-3.258 2.233-5.347 2.261h-5.681v4.136c0 1.516-1.253 2.757-2.785 2.757z"></path>
<path fill="#02897a" style="fill: var(--color2, #02897a)" d="M22.309 5.067c3.077 2.959 4.627 6.644 4.627 10.832 0 4.118-1.486 7.8-4.515 10.768l-4.301-4.006c1.884-1.846 2.809-4.068 2.809-6.761 0-2.714-0.953-4.933-2.882-6.788l4.262-4.044z"></path>
<path fill="#035b81" style="fill: var(--color3, #035b81)" d="M28.894 0c4.432 4.38 6.662 9.812 6.662 16.046 0 6.136-2.14 11.564-6.499 15.954l-4.151-4.015c3.247-3.27 4.838-7.236 4.838-11.939 0-4.75-1.645-8.713-4.962-11.992l4.113-4.053z"></path>
<path fill="#028e37" style="fill: var(--color4, #028e37)" d="M0 23.454h5.57v4.113c0 1.516-1.253 2.757-2.785 2.757s-2.785-1.241-2.785-2.757v-4.113z"></path>
</symbol>
<symbol id="tick" viewBox="0 0 45 32">
<path d="M42.17 0.638c-0.834-0.851-2.188-0.851-3.022 0l-25.606 26.102-9.843-10.033c-0.835-0.851-2.188-0.851-3.023 0s-0.835 2.23 0 3.081l11.354 11.574c0.834 0.851 2.189 0.85 3.023 0l27.117-27.643c0.835-0.851 0.835-2.23 0-3.081z"></path>
</symbol>
<symbol id="dot" viewBox="0 0 32 32">
<path d="M32 16c0 8.837-7.163 16-16 16s-16-7.163-16-16c0-8.837 7.163-16 16-16s16 7.163 16 16z"></path>
</symbol>
<symbol id="ten" viewBox="0 0 45 32">
<path  d="M6.514 31.429v-27.794l3.040 3.040h-9.12v-5.646h13.115v30.4h-7.035zM31.974 31.95c-2.49 0-4.719-0.608-6.688-1.824-1.969-1.245-3.518-3.040-4.647-5.385s-1.694-5.182-1.694-8.512c0-3.33 0.565-6.167 1.694-8.512s2.678-4.126 4.647-5.342c1.969-1.245 4.198-1.867 6.688-1.867 2.519 0 4.748 0.622 6.688 1.867 1.969 1.216 3.518 2.997 4.647 5.342s1.694 5.182 1.694 8.512c0 3.33-0.565 6.167-1.694 8.512s-2.678 4.14-4.647 5.385c-1.94 1.216-4.169 1.824-6.688 1.824zM31.974 26c1.187 0 2.215-0.333 3.083-0.999 0.898-0.666 1.592-1.723 2.085-3.17 0.521-1.448 0.782-3.315 0.782-5.602s-0.261-4.155-0.782-5.602c-0.492-1.448-1.187-2.504-2.085-3.17-0.869-0.666-1.896-0.999-3.083-0.999-1.158 0-2.186 0.333-3.083 0.999-0.869 0.666-1.563 1.723-2.085 3.17-0.492 1.448-0.738 3.315-0.738 5.602s0.246 4.155 0.738 5.602c0.521 1.448 1.216 2.504 2.085 3.17 0.898 0.666 1.925 0.999 3.083 0.999z"></path>
</symbol> 
<symbol id="zero" viewBox="0 0 26 32">
<path  d="M13.127 31.95c-2.49 0-4.719-0.608-6.688-1.824-1.969-1.245-3.518-3.040-4.647-5.385s-1.694-5.182-1.694-8.512c0-3.33 0.565-6.167 1.694-8.512s2.678-4.126 4.647-5.342c1.969-1.245 4.198-1.867 6.688-1.867 2.519 0 4.748 0.622 6.688 1.867 1.969 1.216 3.518 2.997 4.647 5.342s1.694 5.182 1.694 8.512c0 3.33-0.565 6.167-1.694 8.512s-2.678 4.14-4.647 5.385c-1.94 1.216-4.169 1.824-6.688 1.824zM13.127 26c1.187 0 2.215-0.333 3.083-0.999 0.898-0.666 1.592-1.723 2.085-3.17 0.521-1.448 0.782-3.315 0.782-5.602s-0.261-4.155-0.782-5.602c-0.492-1.448-1.187-2.504-2.085-3.17-0.869-0.666-1.896-0.999-3.083-0.999-1.158 0-2.186 0.333-3.083 0.999-0.869 0.666-1.563 1.723-2.085 3.17-0.492 1.448-0.738 3.315-0.738 5.602s0.246 4.155 0.738 5.602c0.521 1.448 1.216 2.504 2.085 3.17 0.898 0.666 1.925 0.999 3.083 0.999z"></path>
</symbol>
<symbol id="five" viewBox="0 0 25 32">
<path  d="M11.9 31.949c-2.152 0-4.289-0.28-6.412-0.84-2.093-0.59-3.891-1.415-5.395-2.476l2.83-5.483c1.179 0.855 2.535 1.533 4.068 2.034 1.562 0.501 3.139 0.752 4.731 0.752 1.798 0 3.213-0.354 4.245-1.061s1.548-1.695 1.548-2.963c0-0.796-0.206-1.503-0.619-2.122s-1.15-1.091-2.211-1.415c-1.032-0.324-2.491-0.486-4.378-0.486h-7.915l1.592-17.422h18.881v5.748h-16.317l3.714-3.272-1.105 12.425-3.714-3.272h6.544c3.066 0 5.527 0.427 7.384 1.282 1.887 0.825 3.257 1.96 4.112 3.405s1.282 3.081 1.282 4.908c0 1.828-0.457 3.523-1.371 5.085-0.914 1.533-2.329 2.786-4.245 3.759-1.887 0.943-4.304 1.415-7.252 1.415z"></path>
</symbol>
<symbol id="dollar" viewBox="0 0 21 32">
<path  d="M9.593 30.862h2.798l0.024-2.739c5.134-0.391 8.111-3.119 8.123-7.233-0.012-4.043-3.059-6.19-7.281-7.138l-0.7-0.166 0.047-5.929c1.577 0.368 2.538 1.376 2.68 2.87h4.921c-0.059-3.925-2.988-6.735-7.553-7.233l0.024-2.787h-2.798l-0.024 2.763c-4.636 0.451-7.909 3.249-7.885 7.293-0.012 3.581 2.514 5.632 6.617 6.617l1.138 0.285-0.059 6.273c-1.933-0.368-3.237-1.553-3.368-3.534h-4.968c0.119 4.791 3.261 7.47 8.289 7.909l-0.024 2.751zM12.462 23.735l0.047-5.538c1.838 0.581 2.834 1.328 2.846 2.68-0.012 1.435-1.103 2.502-2.893 2.858zM9.759 12.862c-1.482-0.51-2.549-1.281-2.526-2.644 0-1.269 0.901-2.253 2.573-2.597l-0.047 5.241z"></path>
</symbol>
<symbol id="twitter" viewBox="0 0 38 32">
<path fill="none" stroke="#02897a" style="stroke: var(--color1, #02897a)" stroke-linejoin="round" stroke-linecap="round" stroke-miterlimit="4" stroke-width="3.2" d="M36.8 1.616c-1.532 1.081-3.229 1.907-5.024 2.448-0.964-1.108-2.244-1.893-3.669-2.25s-2.924-0.267-4.296 0.257c-1.372 0.524-2.55 1.456-3.375 2.671s-1.256 2.654-1.237 4.122v1.6c-2.812 0.073-5.598-0.551-8.11-1.815s-4.673-3.131-6.29-5.433c0 0-6.4 14.4 8 20.8-3.295 2.237-7.221 3.358-11.2 3.2 14.4 8 32 0 32-18.4-0.001-0.446-0.044-0.89-0.128-1.328 1.633-1.61 2.785-3.644 3.328-5.872v0z"></path>
</symbol>
  </defs>
</svg>
